<svg xmlns="http://www.w3.org/2000/svg"
aria-label="HandShake" role="img"
viewBox="0 0 512 512">
<rect
width="512" height="512"
rx="15%"
fill="#fff"/><path d="M22 310a5 5 0 0 1-2-9l32-22-22-32v-4l2-3 32-22-22-32-1-4 3-3 32-22-22-32a5 5 0 0 1 9-6l24 37 1 4-2 3-32 22 21 32c1 1 2 2 1 4l-2 3-32 21 22 33v3l-2 4-36 24-4 1zM490 202a5 5 0 0 1 2 10l-32 21 22 32v4l-2 3-32 22 22 32v4l-2 3-32 22 21 32a5 5 0 0 1-8 6l-25-37v-4l2-3 32-22-22-32-1-4 3-3 32-21-22-32v-4l2-4 36-24 4-1zM415 46L191 1c-18-4-37 8-41 27L70 425c-4 19 8 37 27 41l223 45c19 4 38-8 41-27l81-398c4-18-9-36-27-40zM214 461c-12-2-20-14-18-27 3-12 15-20 28-18 12 3 20 15 17 27-2 13-14 21-27 18zm127-46l-224-46 67-331 224 45z"/><path d="M283 225c-12-3-24 5-27 18 3-13-5-25-18-27-12-3-24 5-27 17-6 32 33 67 33 67s50-17 57-48c2-13-6-25-18-27z"/></svg>
